<?xml version="1.0" encoding="UTF-8" standalone="no"?>
<svg
	xmlns="http://www.w3.org/2000/svg"
	width="122.38039mm"
	height="122.38039mm"
	viewBox="0 0 122.38038 122.38038"
	version="1.1"
>
	<style>
	:root {
		--light: #8fc9ff;
		--dark: #004af5;

		--fill: var(--light);
		--stroke: var(--dark);

		@media (prefers-color-scheme: dark) {
			--fill: var(--dark);
			--stroke: var(--light);
		}
	}
	</style>
	<g transform="translate(-47.179237,-36.59948)">
		<circle
			style="fill: var(--fill); stroke: var(--stroke); stroke-width: 10"
			cx="108.64507"
			cy="88.065315"
			r="43.965836"
		/>
		<path
			style="fill: none; stroke: var(--stroke); stroke-width: 15; stroke-linecap: butt"
			d="m 125.79084,125.99491 13.95297,28.60032 z"
		/>
		<g
			aria-label=".*"
			style="fill: var(--stroke)"
		>
			<path
				d="m 87.17172,93.933006 h 18.7327 v 17.569974 h -18.7327 z"
			/>
			<path
				d="m 112.78588,60.495269 h 9.51707 l -0.77514,6.502614 q -0.25839,2.368502 -1.0766,5.382959 1.63642,-0.81821 2.15319,-1.119656 1.80867,-0.990464 2.75607,-1.421101 l 5.98585,-2.842202 2.9714,9.086434 -6.63181,1.378038 q -1.80867,0.344509 -5.38296,0.4737 2.41157,1.894802 3.83267,3.445094 l 4.47862,4.866195 -7.75146,5.813595 -3.18671,-5.813595 q -0.68902,-1.248847 -2.23931,-4.866195 -1.67949,3.961858 -2.23931,4.866195 l -3.22978,5.813595 -7.96678,-5.813595 4.82313,-4.866195 q 2.024,-2.023993 3.96186,-3.445094 -1.98093,-0.172254 -5.2107,-0.775146 l -6.67487,-1.076592 3.10058,-9.086434 5.98585,2.713011 q 0.9474,0.430637 4.69394,2.669948 -0.81821,-3.617349 -1.03353,-5.382959 z"
			/>
		</g>
	</g>
</svg>
